<svg xmlns="http://www.w3.org/2000/svg" version="1.1" xmlns:xlink="http://www.w3.org/1999/xlink" xmlns:svgjs="http://svgjs.dev/svgjs" viewBox="0 0 800 800"><defs><linearGradient x1="50%" y1="0%" x2="50%" y2="100%" id="ffflurry-grad" gradientTransform="rotate(270)"><stop stop-color="#1b1b2f" stop-opacity="1" offset="0%"></stop><stop stop-color="hsl(1.4, 100%, 67%)" stop-opacity="1" offset="45%"></stop><stop stop-color="hsl(167, 52%, 78%)" stop-opacity="1" offset="100%"></stop></linearGradient></defs><rect width="100%" height="100%" fill="#1b1b2f"></rect><g fill="url(#ffflurry-grad)"><rect width="602" height="3" x="173" y="696.5" rx="1.5" transform="rotate(45, 474, 698)" opacity="0.87"></rect><rect width="1000" height="3" x="-348" y="549.5" rx="1.5" transform="rotate(45, 152, 551)" opacity="0.48"></rect><rect width="1268" height="3" x="-528" y="108.5" rx="1.5" transform="rotate(45, 106, 110)" opacity="0.42"></rect><rect width="686" height="3" x="-297" y="406.5" rx="1.5" transform="rotate(45, 46, 408)" opacity="0.57"></rect><rect width="161" height="3" x="281.5" y="296.5" rx="1.5" transform="rotate(45, 362, 298)" opacity="0.26"></rect><rect width="569" height="3" x="-230.5" y="690.5" rx="1.5" transform="rotate(45, 54, 692)" opacity="0.84"></rect><rect width="1227" height="3" x="-100.5" y="231.5" rx="1.5" transform="rotate(45, 513, 233)" opacity="0.22"></rect><rect width="817" height="3" x="-178.5" y="219.5" rx="1.5" transform="rotate(45, 230, 221)" opacity="0.09"></rect><rect width="887" height="3" x="-121.5" y="638.5" rx="1.5" transform="rotate(45, 322, 640)" opacity="0.80"></rect><rect width="765" height="3" x="311.5" y="153.5" rx="1.5" transform="rotate(45, 694, 155)" opacity="0.73"></rect><rect width="108" height="3" x="622" y="708.5" rx="1.5" transform="rotate(45, 676, 710)" opacity="0.69"></rect><rect width="127" height="3" x="652.5" y="543.5" rx="1.5" transform="rotate(45, 716, 545)" opacity="0.18"></rect><rect width="612" height="3" x="-139" y="363.5" rx="1.5" transform="rotate(45, 167, 365)" opacity="0.59"></rect><rect width="1022" height="3" x="-113" y="469.5" rx="1.5" transform="rotate(45, 398, 471)" opacity="0.11"></rect><rect width="710" height="3" x="274" y="418.5" rx="1.5" transform="rotate(45, 629, 420)" opacity="0.17"></rect><rect width="776" height="3" x="-190" y="732.5" rx="1.5" transform="rotate(45, 198, 734)" opacity="0.13"></rect><rect width="131" height="3" x="334.5" y="71.5" rx="1.5" transform="rotate(45, 400, 73)" opacity="0.59"></rect></g></svg>